<svg xmlns="http://www.w3.org/2000/svg"
    viewBox="0 0 312.048 312.048"
    aria-label="Dann Li"
    role="img">
    <rect id="shape0" transform="translate(-12.096, -6.48)" fill="#fdfdfd" fill-rule="evenodd" stroke="#fdfdfd" stroke-width="2.88" stroke-linecap="square" stroke-linejoin="bevel" width="332.208" height="325.728" rx="1.368" ry="1.368"/><path id="shape01" transform="translate(11.520198928943, 7.68020956250299)" fill="#000000" fill-rule="evenodd" stroke="#000000" stroke-width="1" stroke-linecap="square" stroke-linejoin="miter" stroke-miterlimit="2" d="M147.84 0L147.84 0.24L147.6 0.24L147.6 0.48L147.36 0.48L147.36 0.72L147.12 0.72L147.12 0.96L146.88 0.96L146.88 1.2L146.4 1.2L146.4 1.44L146.16 1.44L146.16 1.68L145.92 1.68L145.92 1.92L145.68 1.92L145.68 2.16L145.44 2.16L145.44 2.4L145.2 2.4L145.2 2.64L144.96 2.64L144.96 3.36L144.72 3.36L144.72 7.68L144.96 7.68L144.96 8.4L145.2 8.4L145.2 8.64L144.96 8.64L144.96 9.36L144.72 9.36L144.72 9.84L144.48 9.84L144.48 10.8L144.72 10.8L144.72 11.28L144.96 11.28L144.96 13.68L145.2 13.68L145.2 14.16L145.44 14.16L145.44 15.12L145.68 15.12L145.68 17.04L145.92 17.04L145.92 17.28L145.68 17.28L145.68 19.2L145.44 19.2L145.44 20.16L145.2 20.16L145.2 20.64L144.96 20.64L144.96 20.88L144.72 20.88L144.72 21.84L144.48 21.84L144.48 22.08L144.24 22.08L144.24 22.56L144 22.56L144 23.28L143.76 23.28L143.76 23.76L143.52 23.76L143.52 24.24L143.28 24.24L143.28 25.44L143.04 25.44L143.04 27.36L143.28 27.36L143.28 31.92L143.52 31.92L143.52 32.16L143.28 32.16L143.28 32.4L143.04 32.4L143.04 32.88L142.8 32.88L142.8 33.36L142.56 33.36L142.56 33.6L142.32 33.6L142.32 34.32L142.56 34.32L142.56 34.56L142.32 34.56L142.32 35.52L142.56 35.52L142.56 36.72L142.8 36.72L142.8 40.32L143.04 40.32L143.04 41.28L143.28 41.28L143.28 41.52L143.04 41.52L143.04 43.68L142.8 43.68L142.8 44.4L142.56 44.4L142.56 45.6L142.8 45.6L142.8 45.84L142.56 45.84L142.56 47.28L142.32 47.28L142.32 49.92L142.56 49.92L142.56 51.84L142.8 51.84L142.8 54.96L142.56 54.96L142.56 55.92L142.32 55.92L142.32 57.6L142.56 57.6L142.56 60.48L142.8 60.48L142.8 66L143.04 66L143.04 66.24L142.8 66.24L142.8 67.92L143.04 67.92L143.04 68.88L143.28 68.88L143.28 69.12L143.04 69.12L143.04 70.08L142.8 70.08L142.8 71.52L143.04 71.52L143.04 72.24L143.28 72.24L143.28 74.64L143.04 74.64L143.04 76.08L142.8 76.08L142.8 78.96L143.04 78.96L143.04 79.2L142.8 79.2L142.8 81.84L142.56 81.84L142.56 83.04L142.8 83.04L142.8 83.28L142.56 83.28L142.56 83.52L142.32 83.52L142.32 85.44L142.56 85.44L142.56 92.16L142.32 92.16L142.32 93.36L142.08 93.36L142.08 94.56L141.84 94.56L141.84 96L142.08 96L142.08 96.24L141.84 96.24L141.84 97.2L141.6 97.2L141.6 97.92L141.84 97.92L141.84 98.16L141.6 98.16L141.6 99.36L141.84 99.36L141.84 99.6L141.6 99.6L141.6 100.8L141.84 100.8L141.84 101.28L142.08 101.28L142.08 102L142.32 102L142.32 102.72L142.56 102.72L142.56 104.88L140.4 104.88L140.4 104.64L138 104.64L138 104.4L136.32 104.4L136.32 104.16L134.88 104.16L134.88 103.92L133.92 103.92L133.92 103.68L132.48 103.68L132.48 104.16L131.52 104.16L131.52 104.4L131.28 104.4L131.28 104.16L130.32 104.16L130.32 103.92L129.84 103.92L129.84 103.68L129.36 103.68L129.36 103.44L129.12 103.44L129.12 103.2L128.88 103.2L128.88 102.96L128.64 102.96L128.64 102.72L127.92 102.72L127.92 102.48L127.2 102.48L127.2 102.24L126.72 102.24L126.72 102L126.24 102L126.24 102.24L126 102.24L126 102L125.52 102L125.52 101.76L124.56 101.76L124.56 101.52L123.36 101.52L123.36 101.28L122.4 101.28L122.4 101.04L121.68 101.04L121.68 100.8L121.2 100.8L121.2 100.56L120.24 100.56L120.24 100.32L119.28 100.32L119.28 100.08L117.6 100.08L117.6 99.84L116.88 99.84L116.88 99.6L116.4 99.6L116.4 99.36L115.68 99.36L115.68 99.6L113.76 99.6L113.76 99.36L112.8 99.36L112.8 99.12L111.84 99.12L111.84 98.88L110.64 98.88L110.64 98.64L108.48 98.64L108.48 98.88L108.24 98.88L108.24 98.64L107.76 98.64L107.76 97.68L107.52 97.68L107.52 97.44L107.04 97.44L107.04 96.96L106.8 96.96L106.8 96.72L106.56 96.72L106.56 96.48L106.08 96.48L106.08 96.24L105.6 96.24L105.6 96L105.36 96L105.36 95.76L104.88 95.76L104.88 95.52L103.68 95.52L103.68 95.76L100.56 95.76L100.56 95.52L98.88 95.52L98.88 95.28L98.16 95.28L98.16 95.04L97.44 95.04L97.44 94.8L96.72 94.8L96.72 94.56L96 94.56L96 94.32L95.28 94.32L95.28 94.08L94.56 94.08L94.56 93.84L92.88 93.84L92.88 93.6L89.52 93.6L89.52 93.84L89.28 93.84L89.28 93.6L88.08 93.6L88.08 93.36L87.12 93.36L87.12 93.12L86.4 93.12L86.4 92.88L85.92 92.88L85.92 92.64L84.96 92.64L84.96 92.4L83.76 92.4L83.76 92.16L82.8 92.16L82.8 91.92L82.32 91.92L82.32 91.68L81.84 91.68L81.84 91.44L81.36 91.44L81.36 91.2L80.64 91.2L80.64 91.44L79.68 91.44L79.68 91.68L79.44 91.68L79.44 91.44L78 91.44L78 91.2L77.04 91.2L77.04 90.96L76.8 90.96L76.8 90.72L76.08 90.72L76.08 89.76L75.84 89.76L75.84 89.52L75.6 89.52L75.6 89.28L74.88 89.28L74.88 89.52L74.4 89.52L74.4 89.04L73.68 89.04L73.68 89.28L73.44 89.28L73.44 89.04L72.96 89.04L72.96 88.8L72.48 88.8L72.48 88.56L72 88.56L72 88.32L71.52 88.32L71.52 88.08L70.8 88.08L70.8 87.84L70.08 87.84L70.08 87.6L69.36 87.6L69.36 87.36L68.64 87.36L68.64 87.12L67.92 87.12L67.92 86.88L67.2 86.88L67.2 86.64L66.72 86.64L66.72 86.4L66.24 86.4L66.24 86.16L65.52 86.16L65.52 85.92L64.8 85.92L64.8 85.68L64.08 85.68L64.08 85.44L63.6 85.44L63.6 85.2L62.4 85.2L62.4 84.96L61.92 84.96L61.92 84.72L61.44 84.72L61.44 84.48L60.96 84.48L60.96 84.24L60.24 84.24L60.24 84L59.76 84L59.76 83.76L59.28 83.76L59.28 83.52L59.04 83.52L59.04 83.04L58.8 83.04L58.8 82.8L59.04 82.8L59.04 82.56L58.8 82.56L58.8 82.8L58.56 82.8L58.56 82.56L57.6 82.56L57.6 82.8L57.36 82.8L57.36 82.56L56.88 82.56L56.88 82.32L54.24 82.32L54.24 82.08L49.92 82.08L49.92 82.32L48.72 82.32L48.72 82.56L48.48 82.56L48.48 82.8L48.24 82.8L48.24 83.04L48 83.04L48 83.28L47.76 83.28L47.76 83.76L47.28 83.76L47.28 84L46.8 84L46.8 84.24L46.56 84.24L46.56 84.48L46.32 84.48L46.32 84.72L46.08 84.72L46.08 85.44L45.6 85.44L45.6 85.68L45.36 85.68L45.36 85.92L45.12 85.92L45.12 86.4L44.88 86.4L44.88 86.88L44.64 86.88L44.64 87.6L44.4 87.6L44.4 88.56L44.64 88.56L44.64 89.28L45.12 89.28L45.12 89.52L44.88 89.52L44.88 90.24L45.12 90.24L45.12 90.96L45.36 90.96L45.36 91.2L45.6 91.2L45.6 91.44L45.84 91.44L45.84 91.68L46.56 91.68L46.56 91.92L47.28 91.92L47.28 91.68L47.52 91.68L47.52 91.92L48.24 91.92L48.24 92.16L48.96 92.16L48.96 92.4L49.44 92.4L49.44 92.64L49.68 92.64L49.68 97.44L49.44 97.44L49.44 98.4L49.68 98.4L49.68 99.36L49.92 99.36L49.92 99.6L49.68 99.6L49.68 101.04L49.92 101.04L49.92 107.04L50.16 107.04L50.16 107.28L50.4 107.28L50.4 107.52L50.64 107.52L50.64 108.72L50.88 108.72L50.88 109.92L51.12 109.92L51.12 112.08L51.36 112.08L51.36 113.76L51.6 113.76L51.6 116.64L51.36 116.64L51.36 117.84L51.12 117.84L51.12 119.04L51.36 119.04L51.36 120.24L51.6 120.24L51.6 121.44L51.84 121.44L51.84 121.68L51.6 121.68L51.6 122.88L51.36 122.88L51.36 123.6L51.12 123.6L51.12 124.08L50.88 124.08L50.88 125.52L51.12 125.52L51.12 131.76L50.88 131.76L50.88 132L50.64 132L50.64 132.48L50.88 132.48L50.88 136.56L51.12 136.56L51.12 137.52L51.36 137.52L51.36 141.12L51.12 141.12L51.12 145.68L50.64 145.68L50.64 146.16L50.88 146.16L50.88 146.4L49.44 146.4L49.44 146.64L48.96 146.64L48.96 146.16L48.24 146.16L48.24 146.4L48 146.4L48 146.16L47.04 146.16L47.04 145.92L45.84 145.92L45.84 145.68L44.4 145.68L44.4 145.92L44.16 145.92L44.16 145.68L41.28 145.68L41.28 145.92L39.36 145.92L39.36 146.16L36.72 146.16L36.72 146.4L34.32 146.4L34.32 146.64L34.08 146.64L34.08 146.4L27.12 146.4L27.12 146.64L26.88 146.64L26.88 146.4L25.44 146.4L25.44 146.64L25.2 146.64L25.2 146.4L23.76 146.4L23.76 146.64L20.88 146.64L20.88 146.88L18.96 146.88L18.96 147.12L18.72 147.12L18.72 146.88L18 146.88L18 146.64L17.04 146.64L17.04 146.4L16.8 146.4L16.8 146.16L15.36 146.16L15.36 145.92L13.68 145.92L13.68 145.68L12.72 145.68L12.72 145.92L11.52 145.92L11.52 146.16L10.08 146.16L10.08 146.4L9.36 146.4L9.36 146.64L9.12 146.64L9.12 146.4L7.2 146.4L7.2 146.64L6.96 146.64L6.96 146.4L4.32 146.4L4.32 146.64L3.84 146.64L3.84 146.88L3.6 146.88L3.6 147.36L3.36 147.36L3.36 147.12L2.16 147.12L2.16 147.36L1.92 147.36L1.92 147.6L1.68 147.6L1.68 148.56L0.72 148.56L0.72 148.8L0.24 148.8L0.24 149.04L0 149.04L0 150L0.24 150L0.24 150.72L0.48 150.72L0.48 151.44L0.72 151.44L0.72 151.92L0.96 151.92L0.96 152.64L1.2 152.64L1.2 153.36L1.44 153.36L1.44 154.56L1.68 154.56L1.68 155.04L1.92 155.04L1.92 155.28L2.16 155.28L2.16 155.52L2.88 155.52L2.88 155.76L5.52 155.76L5.52 155.52L7.68 155.52L7.68 155.28L8.88 155.28L8.88 155.04L9.12 155.04L9.12 155.28L11.76 155.28L11.76 155.52L12.96 155.52L12.96 155.76L14.88 155.76L14.88 155.52L15.12 155.52L15.12 155.76L17.04 155.76L17.04 156L18 156L18 156.24L18.72 156.24L18.72 156.48L19.44 156.48L19.44 156.72L20.4 156.72L20.4 156.96L21.84 156.96L21.84 157.2L22.56 157.2L22.56 157.44L25.92 157.44L25.92 157.2L27.36 157.2L27.36 156.96L28.56 156.96L28.56 156.72L29.28 156.72L29.28 156.48L31.2 156.48L31.2 156.24L31.44 156.24L31.44 156.48L32.64 156.48L32.64 156.72L33.36 156.72L33.36 156.96L34.08 156.96L34.08 157.2L35.52 157.2L35.52 157.44L38.88 157.44L38.88 157.2L41.76 157.2L41.76 156.96L43.2 156.96L43.2 156.72L44.16 156.72L44.16 156.48L46.8 156.48L46.8 156.24L47.04 156.24L47.04 156.48L49.68 156.48L49.68 156.24L49.92 156.24L49.92 156.48L50.64 156.48L50.64 157.44L50.4 157.44L50.4 159.12L50.16 159.12L50.16 160.08L49.92 160.08L49.92 161.04L49.68 161.04L49.68 162L49.44 162L49.44 162.48L49.2 162.48L49.2 163.2L49.44 163.2L49.44 166.56L49.2 166.56L49.2 167.28L49.44 167.28L49.44 167.52L49.2 167.52L49.2 168L49.44 168L49.44 168.48L49.68 168.48L49.68 168.72L49.44 168.72L49.44 169.68L49.68 169.68L49.68 171.6L49.92 171.6L49.92 172.56L50.16 172.56L50.16 172.8L49.92 172.8L49.92 173.76L49.68 173.76L49.68 174.24L49.44 174.24L49.44 174.72L49.2 174.72L49.2 175.68L49.44 175.68L49.44 176.16L49.68 176.16L49.68 176.88L49.92 176.88L49.92 177.36L50.16 177.36L50.16 177.84L50.4 177.84L50.4 178.08L50.16 178.08L50.16 178.56L49.92 178.56L49.92 179.52L50.16 179.52L50.16 179.76L49.92 179.76L49.92 180.48L49.68 180.48L49.68 180.96L49.44 180.96L49.44 181.68L49.68 181.68L49.68 182.641L49.92 182.641L49.92 184.561L50.16 184.561L50.16 190.081L49.92 190.081L49.92 191.521L50.16 191.521L50.16 192.241L50.4 192.241L50.4 193.201L50.64 193.201L50.64 193.441L50.4 193.441L50.4 194.161L50.16 194.161L50.16 194.881L49.92 194.881L49.92 195.601L49.68 195.601L49.68 196.321L49.44 196.321L49.44 196.801L49.2 196.801L49.2 197.761L49.44 197.761L49.44 199.201L49.68 199.201L49.68 202.321L49.92 202.321L49.92 202.561L49.68 202.561L49.68 204.721L49.44 204.721L49.44 205.201L49.2 205.201L49.2 205.681L48.96 205.681L48.96 206.401L48.72 206.401L48.72 213.121L48.48 213.121L48.48 214.561L48.24 214.561L48.24 221.761L47.52 221.761L47.52 222.001L47.04 222.001L47.04 222.241L46.8 222.241L46.8 222.721L46.56 222.721L46.56 223.201L46.32 223.201L46.32 223.681L46.08 223.681L46.08 224.881L45.84 224.881L45.84 226.561L46.08 226.561L46.08 227.761L46.32 227.761L46.32 228.481L46.56 228.481L46.56 228.961L46.8 228.961L46.8 229.201L47.04 229.201L47.04 229.441L47.28 229.441L47.28 229.681L47.76 229.681L47.76 229.921L49.2 229.921L49.2 229.681L49.92 229.681L49.92 230.401L50.16 230.401L50.16 230.881L50.4 230.881L50.4 231.361L50.64 231.361L50.64 231.841L52.8 231.841L52.8 231.601L53.52 231.601L53.52 231.361L53.76 231.361L53.76 231.121L54 231.121L54 230.881L54.24 230.881L54.24 230.401L54.72 230.401L54.72 230.161L55.2 230.161L55.2 229.921L55.44 229.921L55.44 229.681L55.68 229.681L55.68 229.441L55.92 229.441L55.92 228.961L56.16 228.961L56.16 228.481L56.4 228.481L56.4 228.241L56.64 228.241L56.64 228.001L56.88 228.001L56.88 227.761L57.12 227.761L57.12 227.521L57.36 227.521L57.36 227.281L58.08 227.281L58.08 227.041L60.72 227.041L60.72 226.801L62.16 226.801L62.16 226.561L62.88 226.561L62.88 226.321L63.6 226.321L63.6 226.081L64.32 226.081L64.32 225.841L64.56 225.841L64.56 226.081L65.52 226.081L65.52 225.841L66 225.841L66 225.601L66.48 225.601L66.48 225.361L66.72 225.361L66.72 225.601L67.44 225.601L67.44 225.361L68.4 225.361L68.4 225.121L69.36 225.121L69.36 224.881L71.04 224.881L71.04 224.641L72.24 224.641L72.24 224.401L72.48 224.401L72.48 224.641L73.2 224.641L73.2 224.401L75.84 224.401L75.84 224.161L76.56 224.161L76.56 223.921L77.28 223.921L77.28 223.681L78 223.681L78 223.441L78.48 223.441L78.48 223.201L78.96 223.201L78.96 222.961L79.44 222.961L79.44 222.721L79.92 222.721L79.92 222.481L80.4 222.481L80.4 222.241L81.12 222.241L81.12 222.001L81.84 222.001L81.84 221.761L82.08 221.761L82.08 222.001L84.72 222.001L84.72 221.761L85.2 221.761L85.2 221.521L85.68 221.521L85.68 221.281L86.16 221.281L86.16 221.041L86.88 221.041L86.88 220.801L87.6 220.801L87.6 220.561L89.52 220.561L89.52 220.321L90.24 220.321L90.24 220.081L90.48 220.081L90.48 220.321L91.68 220.321L91.68 220.081L92.64 220.081L92.64 219.841L93.6 219.841L93.6 219.601L94.32 219.601L94.32 219.361L94.56 219.361L94.56 219.121L95.04 219.121L95.04 218.881L95.28 218.881L95.28 218.641L95.52 218.641L95.52 218.401L96.96 218.401L96.96 218.161L97.44 218.161L97.44 217.921L98.16 217.921L98.16 217.681L98.64 217.681L98.64 217.201L99.12 217.201L99.12 216.961L99.36 216.961L99.36 216.481L99.6 216.481L99.6 216.721L99.84 216.721L99.84 216.961L100.56 216.961L100.56 216.721L100.8 216.721L100.8 216.001L101.28 216.001L101.28 216.241L102.48 216.241L102.48 215.761L102.72 215.761L102.72 215.281L102.96 215.281L102.96 215.041L103.2 215.041L103.2 215.281L103.68 215.281L103.68 215.041L104.16 215.041L104.16 214.801L104.64 214.801L104.64 214.561L104.88 214.561L104.88 214.321L105.12 214.321L105.12 214.801L105.36 214.801L105.36 214.561L105.84 214.561L105.84 214.321L106.32 214.321L106.32 214.081L107.04 214.081L107.04 213.841L107.28 213.841L107.28 213.601L107.52 213.601L107.52 213.361L107.76 213.361L107.76 213.121L108 213.121L108 213.361L108.24 213.361L108.24 213.121L109.92 213.121L109.92 212.881L111.12 212.881L111.12 212.641L112.08 212.641L112.08 212.401L112.32 212.401L112.32 211.921L113.04 211.921L113.04 211.681L113.52 211.681L113.52 211.441L114 211.441L114 211.201L114.72 211.201L114.72 210.961L115.2 210.961L115.2 210.721L115.68 210.721L115.68 210.481L116.4 210.481L116.4 210.241L116.64 210.241L116.64 210.481L117.36 210.481L117.36 210.241L117.6 210.241L117.6 210.481L118.56 210.481L118.56 210.241L118.8 210.241L118.8 210.001L119.04 210.001L119.04 209.761L119.28 209.761L119.28 209.041L120 209.041L120 208.801L120.24 208.801L120.24 209.041L120.48 209.041L120.48 208.801L120.72 208.801L120.72 209.041L121.2 209.041L121.2 208.801L121.44 208.801L121.44 208.081L121.68 208.081L121.68 208.321L122.16 208.321L122.16 208.081L122.4 208.081L122.4 207.841L122.64 207.841L122.64 207.601L122.88 207.601L122.88 207.121L124.8 207.121L124.8 207.601L125.28 207.601L125.28 207.841L126 207.841L126 207.121L126.48 207.121L126.48 206.881L126.72 206.881L126.72 206.641L127.2 206.641L127.2 206.401L127.68 206.401L127.68 206.161L127.92 206.161L127.92 205.921L128.4 205.921L128.4 205.681L129.12 205.681L129.12 205.201L129.36 205.201L129.36 205.441L130.08 205.441L130.08 205.201L130.56 205.201L130.56 204.961L131.28 204.961L131.28 204.721L131.76 204.721L131.76 204.481L132 204.481L132 204.241L132.48 204.241L132.48 204.001L132.72 204.001L132.72 203.761L132.96 203.761L132.96 203.281L133.68 203.281L133.68 203.041L134.16 203.041L134.16 202.801L134.64 202.801L134.64 202.561L135.12 202.561L135.12 202.321L135.36 202.321L135.36 202.561L136.08 202.561L136.08 202.321L138.48 202.321L138.48 202.561L138.72 202.561L138.72 202.801L138.96 202.801L138.96 203.041L139.2 203.041L139.2 204.241L139.44 204.241L139.44 204.481L139.2 204.481L139.2 206.401L138.96 206.401L138.96 208.081L138.72 208.081L138.72 210.001L138.96 210.001L138.96 211.441L138.72 211.441L138.72 211.921L138.48 211.921L138.48 212.641L138.24 212.641L138.24 214.081L138 214.081L138 216.001L137.76 216.001L137.76 217.201L137.52 217.201L137.52 217.921L137.76 217.921L137.76 218.641L138 218.641L138 219.841L138.24 219.841L138.24 222.481L138.48 222.481L138.48 223.201L138.72 223.201L138.72 224.161L138.96 224.161L138.96 225.361L139.2 225.361L139.2 225.601L138.96 225.601L138.96 226.801L139.2 226.801L139.2 227.761L139.44 227.761L139.44 229.441L139.68 229.441L139.68 232.321L139.92 232.321L139.92 232.561L139.68 232.561L139.68 234.721L139.44 234.721L139.44 235.441L139.2 235.441L139.2 236.641L138.96 236.641L138.96 237.121L138.72 237.121L138.72 238.801L138.48 238.801L138.48 239.281L138.24 239.281L138.24 239.761L138 239.761L138 240.241L137.76 240.241L137.76 240.481L137.52 240.481L137.52 240.721L137.28 240.721L137.28 240.961L137.04 240.961L137.04 242.401L136.8 242.401L136.8 242.881L136.56 242.881L136.56 243.601L136.08 243.601L136.08 244.081L136.32 244.081L136.32 245.041L136.56 245.041L136.56 246.241L136.8 246.241L136.8 247.681L137.04 247.681L137.04 247.921L136.8 247.921L136.8 249.601L136.56 249.601L136.56 251.281L137.04 251.281L137.04 251.521L137.52 251.521L137.52 252.721L137.76 252.721L137.76 252.961L137.52 252.961L137.52 254.161L137.28 254.161L137.28 254.881L137.04 254.881L137.04 255.601L137.28 255.601L137.28 256.561L137.52 256.561L137.52 257.281L137.76 257.281L137.76 258.001L138 258.001L138 259.441L138.24 259.441L138.24 264.721L138 264.721L138 266.161L137.76 266.161L137.76 267.601L137.52 267.601L137.52 269.041L137.76 269.041L137.76 270.961L138 270.961L138 272.401L138.48 272.401L138.48 273.601L138.72 273.601L138.72 274.321L138.96 274.321L138.96 275.281L139.44 275.281L139.44 276.001L139.68 276.001L139.68 276.241L139.92 276.241L139.92 276.481L139.44 276.481L139.44 276.721L139.2 276.721L139.2 277.681L138.96 277.681L138.96 279.121L138.72 279.121L138.72 280.081L138.48 280.081L138.48 280.321L138.24 280.321L138.24 280.801L138 280.801L138 281.041L137.76 281.041L137.76 281.761L138.24 281.761L138.24 282.241L138 282.241L138 282.721L137.76 282.721L137.76 283.201L137.52 283.201L137.52 283.681L137.28 283.681L137.28 284.161L137.04 284.161L137.04 284.641L136.8 284.641L136.8 285.121L136.56 285.121L136.56 286.561L136.8 286.561L136.8 286.801L136.56 286.801L136.56 288.481L136.32 288.481L136.32 289.201L136.08 289.201L136.08 289.681L136.32 289.681L136.32 289.921L136.08 289.921L136.08 290.641L136.32 290.641L136.32 290.881L136.08 290.881L136.08 291.841L136.32 291.841L136.32 292.801L136.56 292.801L136.56 293.521L136.8 293.521L136.8 294.241L137.04 294.241L137.04 294.481L137.28 294.481L137.28 294.721L137.76 294.721L137.76 294.961L138.24 294.961L138.24 295.201L138.48 295.201L138.48 295.441L138.72 295.441L138.72 295.681L139.2 295.681L139.2 296.161L139.44 296.161L139.44 296.401L139.68 296.401L139.68 296.881L139.92 296.881L139.92 297.121L140.16 297.121L140.16 297.361L140.4 297.361L140.4 297.601L140.88 297.601L140.88 298.081L142.32 298.081L142.32 298.321L142.08 298.321L142.08 298.801L143.04 298.801L143.04 298.321L142.8 298.321L142.8 298.081L143.28 298.081L143.28 297.841L143.76 297.841L143.76 297.601L144.24 297.601L144.24 297.361L144.96 297.361L144.96 297.121L145.44 297.121L145.44 296.881L145.68 296.881L145.68 296.401L145.92 296.401L145.92 296.161L146.16 296.161L146.16 295.921L146.64 295.921L146.64 295.681L147.12 295.681L147.12 295.441L147.36 295.441L147.36 294.961L147.6 294.961L147.6 294.481L147.84 294.481L147.84 294.001L148.08 294.001L148.08 293.521L148.32 293.521L148.32 293.281L148.56 293.281L148.56 293.041L148.8 293.041L148.8 292.321L149.04 292.321L149.04 287.281L149.28 287.281L149.28 282.961L149.52 282.961L149.52 279.601L149.28 279.601L149.28 277.921L149.04 277.921L149.04 277.681L149.28 277.681L149.28 273.361L149.52 273.361L149.52 272.401L149.76 272.401L149.76 270.721L149.52 270.721L149.52 270.001L149.28 270.001L149.28 269.521L149.04 269.521L149.04 267.841L149.28 267.841L149.28 264.481L149.04 264.481L149.04 264.241L149.28 264.241L149.28 263.041L149.52 263.041L149.52 262.321L149.76 262.321L149.76 262.081L150 262.081L150 261.601L150.24 261.601L150.24 260.161L150.48 260.161L150.48 258.481L150.72 258.481L150.72 256.561L150.48 256.561L150.48 254.641L150.24 254.641L150.24 252.721L150 252.721L150 250.801L149.76 250.801L149.76 249.361L150 249.361L150 248.881L150.24 248.881L150.24 247.921L150 247.921L150 246.481L149.76 246.481L149.76 244.801L149.52 244.801L149.52 244.561L149.76 244.561L149.76 240.961L149.52 240.961L149.52 240.481L149.28 240.481L149.28 239.041L149.52 239.041L149.52 236.881L149.76 236.881L149.76 236.161L150 236.161L150 235.681L149.76 235.681L149.76 235.441L149.52 235.441L149.52 234.241L149.76 234.241L149.76 232.801L150 232.801L150 231.361L150.24 231.361L150.24 230.401L150 230.401L150 229.921L149.76 229.921L149.76 229.201L150 229.201L150 228.961L150.24 228.961L150.24 228.721L150.48 228.721L150.48 228.001L150.72 228.001L150.72 225.121L150.48 225.121L150.48 224.881L150.72 224.881L150.72 222.961L150.96 222.961L150.96 220.801L151.2 220.801L151.2 219.121L150.96 219.121L150.96 218.881L151.2 218.881L151.2 217.921L151.44 217.921L151.44 216.241L151.2 216.241L151.2 216.001L151.44 216.001L151.44 214.081L151.68 214.081L151.68 213.361L151.92 213.361L151.92 212.161L152.16 212.161L152.16 210.961L151.92 210.961L151.92 210.241L151.68 210.241L151.68 210.001L151.92 210.001L151.92 208.321L151.68 208.321L151.68 202.561L151.92 202.561L151.92 198.961L151.68 198.961L151.68 198.721L151.92 198.721L151.92 197.761L151.68 197.761L151.68 197.521L151.92 197.521L151.92 197.041L152.16 197.041L152.16 196.801L152.4 196.801L152.4 196.561L152.64 196.561L152.64 196.321L152.88 196.321L152.88 196.081L153.36 196.081L153.36 195.841L153.6 195.841L153.6 195.601L154.08 195.601L154.08 195.361L154.32 195.361L154.32 195.601L154.8 195.601L154.8 195.361L155.04 195.361L155.04 195.121L155.28 195.121L155.28 194.881L155.76 194.881L155.76 194.641L157.2 194.641L157.2 194.881L157.92 194.881L157.92 194.641L158.16 194.641L158.16 194.401L158.4 194.401L158.4 193.921L158.64 193.921L158.64 194.161L158.88 194.161L158.88 193.441L159.6 193.441L159.6 193.201L159.84 193.201L159.84 192.721L160.08 192.721L160.08 192.961L161.04 192.961L161.04 192.721L161.76 192.721L161.76 192.481L162.72 192.481L162.72 192.241L163.2 192.241L163.2 192.001L163.44 192.001L163.44 191.761L163.68 191.761L163.68 191.521L164.4 191.521L164.4 191.281L164.88 191.281L164.88 191.041L164.64 191.041L164.64 190.801L165.36 190.801L165.36 190.561L165.84 190.561L165.84 190.321L166.32 190.321L166.32 190.081L166.56 190.081L166.56 189.841L167.04 189.841L167.04 189.601L167.52 189.601L167.52 189.361L168 189.361L168 189.121L168.72 189.121L168.72 188.881L168.96 188.881L168.96 188.641L170.4 188.641L170.4 188.401L170.88 188.401L170.88 188.161L171.36 188.161L171.36 187.921L171.84 187.921L171.84 187.681L172.8 187.681L172.8 187.441L174 187.441L174 187.201L174.96 187.201L174.96 186.961L175.921 186.961L175.921 186.721L176.641 186.721L176.641 186.481L177.841 186.481L177.841 186.241L178.801 186.241L178.801 185.761L179.521 185.761L179.521 185.521L180.241 185.521L180.241 185.281L180.961 185.281L180.961 185.041L181.441 185.041L181.441 184.561L182.161 184.561L182.161 184.081L182.401 184.081L182.401 184.321L185.041 184.321L185.041 184.081L186.001 184.081L186.001 183.841L186.721 183.841L186.721 183.601L187.201 183.601L187.201 183.361L187.681 183.361L187.681 183.121L187.921 183.121L187.921 183.361L188.401 183.361L188.401 183.121L188.641 183.121L188.641 182.881L189.121 182.881L189.121 182.641L189.841 182.641L189.841 182.401L190.561 182.401L190.561 182.16L190.801 182.16L190.801 181.92L191.281 181.92L191.281 181.68L191.761 181.68L191.761 181.44L192.241 181.44L192.241 181.2L192.721 181.2L192.721 180.96L193.441 180.96L193.441 180.72L193.921 180.72L193.921 180.48L194.401 180.48L194.401 180.24L195.121 180.24L195.121 180L195.841 180L195.841 179.76L196.561 179.76L196.561 179.52L197.281 179.52L197.281 179.28L198.241 179.28L198.241 179.04L198.961 179.04L198.961 178.8L199.681 178.8L199.681 178.56L199.921 178.56L199.921 178.08L200.401 178.08L200.401 177.84L200.641 177.84L200.641 177.6L201.121 177.6L201.121 177.36L201.361 177.36L201.361 177.12L201.601 177.12L201.601 176.64L202.081 176.64L202.081 176.4L202.321 176.4L202.321 176.16L202.801 176.16L202.801 175.92L203.041 175.92L203.041 175.68L203.281 175.68L203.281 174.96L204.001 174.96L204.001 174.72L204.481 174.72L204.481 174.48L204.721 174.48L204.721 174.24L205.201 174.24L205.201 174L205.681 174L205.681 173.76L205.921 173.76L205.921 173.52L206.161 173.52L206.161 173.28L206.881 173.28L206.881 173.04L207.841 173.04L207.841 172.8L208.801 172.8L208.801 172.56L209.521 172.56L209.521 172.32L209.761 172.32L209.761 171.84L210.481 171.84L210.481 171.6L210.721 171.6L210.721 171.36L210.961 171.36L210.961 171.6L212.401 171.6L212.401 171.36L214.321 171.36L214.321 171.12L215.521 171.12L215.521 170.88L216.001 170.88L216.001 170.64L216.481 170.64L216.481 170.4L216.961 170.4L216.961 170.16L217.681 170.16L217.681 169.92L218.401 169.92L218.401 169.68L219.121 169.68L219.121 169.44L219.361 169.44L219.361 169.2L219.841 169.2L219.841 168.96L220.321 168.96L220.321 168.72L220.801 168.72L220.801 168.48L221.041 168.48L221.041 168.72L221.521 168.72L221.521 168.48L221.761 168.48L221.761 168L222.001 168L222.001 168.24L222.481 168.24L222.481 168L222.961 168L222.961 167.76L223.441 167.76L223.441 167.52L223.921 167.52L223.921 167.28L224.161 167.28L224.161 167.04L224.641 167.04L224.641 166.8L224.881 166.8L224.881 166.56L225.121 166.56L225.121 166.08L225.601 166.08L225.601 165.84L225.841 165.84L225.841 165.6L226.321 165.6L226.321 165.36L226.561 165.36L226.561 165.12L227.041 165.12L227.041 164.88L227.521 164.88L227.521 164.64L228.481 164.64L228.481 164.4L231.841 164.4L231.841 164.16L232.321 164.16L232.321 163.92L232.561 163.92L232.561 163.68L232.801 163.68L232.801 163.44L233.041 163.44L233.041 162.96L233.761 162.96L233.761 162.72L234.001 162.72L234.001 162.48L234.241 162.48L234.241 162.24L234.481 162.24L234.481 162L234.721 162L234.721 161.76L234.961 161.76L234.961 161.52L235.201 161.52L235.201 161.28L235.921 161.28L235.921 161.04L236.881 161.04L236.881 160.8L237.121 160.8L237.121 161.04L238.321 161.04L238.321 160.8L239.281 160.8L239.281 160.56L240.241 160.56L240.241 160.32L240.481 160.32L240.481 160.56L241.681 160.56L241.681 160.32L242.161 160.32L242.161 160.08L242.641 160.08L242.641 159.84L243.361 159.84L243.361 159.6L244.321 159.6L244.321 159.36L244.801 159.36L244.801 159.12L245.281 159.12L245.281 158.88L246.001 158.88L246.001 158.64L246.481 158.64L246.481 158.4L246.721 158.4L246.721 158.16L246.961 158.16L246.961 157.92L247.201 157.92L247.201 157.68L247.441 157.68L247.441 157.44L247.921 157.44L247.921 157.2L248.161 157.2L248.161 156.96L248.401 156.96L248.401 156.72L248.641 156.72L248.641 156.48L248.881 156.48L248.881 156.24L249.121 156.24L249.121 156L249.361 156L249.361 155.76L249.601 155.76L249.601 155.52L249.841 155.52L249.841 155.28L250.081 155.28L250.081 154.08L252.241 154.08L252.241 153.84L252.961 153.84L252.961 153.6L254.641 153.6L254.641 153.84L255.121 153.84L255.121 154.08L256.081 154.08L256.081 153.84L256.321 153.84L256.321 154.08L257.761 154.08L257.761 153.84L263.281 153.84L263.281 153.6L264.241 153.6L264.241 153.36L266.401 153.36L266.401 153.12L266.641 153.12L266.641 153.36L267.601 153.36L267.601 153.6L268.561 153.6L268.561 153.36L275.761 153.36L275.761 153.6L276.481 153.6L276.481 153.84L277.681 153.84L277.681 153.6L279.121 153.6L279.121 153.36L280.081 153.36L280.081 153.12L280.801 153.12L280.801 152.88L281.521 152.88L281.521 152.64L281.761 152.64L281.761 152.4L282.241 152.4L282.241 152.16L282.481 152.16L282.481 151.92L282.721 151.92L282.721 151.68L283.201 151.68L283.201 151.44L283.681 151.44L283.681 151.2L283.921 151.2L283.921 150.72L284.161 150.72L284.161 150.48L284.401 150.48L284.401 150.24L284.881 150.24L284.881 150L285.361 150L285.361 149.76L285.601 149.76L285.601 148.8L285.841 148.8L285.841 147.84L286.081 147.84L286.081 148.08L286.801 148.08L286.801 147.84L287.041 147.84L287.041 147.12L287.521 147.12L287.521 148.32L287.761 148.32L287.761 148.08L288.001 148.08L288.001 147.6L288.241 147.6L288.241 147.12L288.481 147.12L288.481 146.4L288.721 146.4L288.721 145.68L289.201 145.68L289.201 146.88L289.441 146.88L289.441 146.64L289.681 146.64L289.681 146.4L289.921 146.4L289.921 145.68L290.161 145.68L290.161 144L289.921 144L289.921 143.76L289.681 143.76L289.681 143.52L289.441 143.52L289.441 143.28L289.201 143.28L289.201 143.04L288.961 143.04L288.961 142.8L288.481 142.8L288.481 142.56L288.001 142.56L288.001 142.32L287.761 142.32L287.761 142.08L287.041 142.08L287.041 141.84L284.641 141.84L284.641 142.08L283.201 142.08L283.201 142.32L282.721 142.32L282.721 141.84L282.001 141.84L282.001 141.6L281.041 141.6L281.041 141.36L280.081 141.36L280.081 141.12L279.361 141.12L279.361 140.88L278.641 140.88L278.641 140.64L277.921 140.64L277.921 140.4L276.481 140.4L276.481 140.64L276.241 140.64L276.241 140.88L276.001 140.88L276.001 141.12L275.521 141.12L275.521 141.36L274.561 141.36L274.561 141.6L273.121 141.6L273.121 141.84L272.881 141.84L272.881 141.6L271.441 141.6L271.441 141.12L270.241 141.12L270.241 141.36L268.321 141.36L268.321 141.12L267.601 141.12L267.601 140.88L267.361 140.88L267.361 140.64L266.881 140.64L266.881 140.4L266.401 140.4L266.401 140.16L265.681 140.16L265.681 139.92L264.961 139.92L264.961 139.68L264.721 139.68L264.721 139.44L264.241 139.44L264.241 139.68L264.001 139.68L264.001 139.92L263.761 139.92L263.761 140.16L263.521 140.16L263.521 140.64L263.041 140.64L263.041 140.88L262.321 140.88L262.321 141.12L262.081 141.12L262.081 140.88L261.601 140.88L261.601 140.64L261.361 140.64L261.361 140.4L260.881 140.4L260.881 139.92L260.641 139.92L260.641 139.68L259.441 139.68L259.441 139.92L259.201 139.92L259.201 140.16L258.241 140.16L258.241 140.4L258.001 140.4L258.001 140.16L256.801 140.16L256.801 139.92L256.321 139.92L256.321 139.68L255.841 139.68L255.841 139.44L255.601 139.44L255.601 139.2L254.641 139.2L254.641 138.96L253.681 138.96L253.681 139.2L253.441 139.2L253.441 138.96L252.961 138.96L252.961 138.48L252.721 138.48L252.721 138.24L252.481 138.24L252.481 138L251.761 138L251.761 137.76L251.281 137.76L251.281 137.52L250.801 137.52L250.801 137.28L250.081 137.28L250.081 137.52L249.841 137.52L249.841 137.28L249.601 137.28L249.601 137.04L249.361 137.04L249.361 136.8L249.121 136.8L249.121 136.56L248.641 136.56L248.641 136.32L248.401 136.32L248.401 136.08L248.161 136.08L248.161 135.84L247.921 135.84L247.921 135.6L247.681 135.6L247.681 135.12L247.441 135.12L247.441 134.88L247.201 134.88L247.201 134.64L246.961 134.64L246.961 134.4L246.481 134.4L246.481 134.16L245.281 134.16L245.281 134.4L243.841 134.4L243.841 134.16L243.361 134.16L243.361 133.92L241.441 133.92L241.441 133.68L240.481 133.68L240.481 133.44L238.561 133.44L238.561 133.2L236.641 133.2L236.641 132.96L235.681 132.96L235.681 132.72L234.961 132.72L234.961 132.24L234.721 132.24L234.721 131.76L234.481 131.76L234.481 131.52L234.241 131.52L234.241 131.28L234.001 131.28L234.001 131.04L233.761 131.04L233.761 130.8L233.521 130.8L233.521 130.56L232.561 130.56L232.561 130.32L230.881 130.32L230.881 129.84L230.401 129.84L230.401 129.36L230.161 129.36L230.161 129.12L229.921 129.12L229.921 128.88L227.761 128.88L227.761 128.4L227.521 128.4L227.521 128.16L227.281 128.16L227.281 127.92L226.561 127.92L226.561 127.44L226.081 127.44L226.081 127.2L225.601 127.2L225.601 128.16L225.361 128.16L225.361 128.4L225.121 128.4L225.121 127.68L224.881 127.68L224.881 127.44L224.401 127.44L224.401 127.68L222.961 127.68L222.961 127.44L222.481 127.44L222.481 127.2L221.761 127.2L221.761 126.96L220.321 126.96L220.321 126.72L219.121 126.72L219.121 126.48L218.161 126.48L218.161 126.24L217.681 126.24L217.681 126L217.441 126L217.441 126.24L217.201 126.24L217.201 126L216.961 126L216.961 126.24L216.721 126.24L216.721 126.48L216.241 126.48L216.241 126.72L216.001 126.72L216.001 126L215.761 126L215.761 125.76L215.521 125.76L215.521 125.52L215.281 125.52L215.281 125.28L213.841 125.28L213.841 125.04L212.161 125.04L212.161 124.32L211.921 124.32L211.921 124.08L211.441 124.08L211.441 123.84L211.201 123.84L211.201 123.6L210.961 123.6L210.961 123.36L210.481 123.36L210.481 123.12L209.281 123.12L209.281 122.88L208.321 122.88L208.321 123.12L208.081 123.12L208.081 122.88L207.601 122.88L207.601 123.12L207.361 123.12L207.361 122.88L205.921 122.88L205.921 122.4L205.681 122.4L205.681 122.16L205.201 122.16L205.201 121.92L204.721 121.92L204.721 121.44L204.241 121.44L204.241 121.2L203.281 121.2L203.281 120.96L202.801 120.96L202.801 121.2L202.321 121.2L202.321 121.44L202.081 121.44L202.081 121.2L201.601 121.2L201.601 120.96L200.881 120.96L200.881 121.2L200.641 121.2L200.641 120.96L199.921 120.96L199.921 120.72L198.721 120.72L198.721 120.96L198.481 120.96L198.481 120.72L198.001 120.72L198.001 120.48L197.281 120.48L197.281 120.24L196.561 120.24L196.561 120L196.321 120L196.321 119.76L195.841 119.76L195.841 119.52L195.361 119.52L195.361 120L193.921 120L193.921 120.24L193.681 120.24L193.681 120L193.201 120L193.201 119.76L192.721 119.76L192.721 119.52L192.481 119.52L192.481 119.28L192.241 119.28L192.241 119.04L189.601 119.04L189.601 118.8L188.641 118.8L188.641 118.32L188.161 118.32L188.161 118.08L187.681 118.08L187.681 117.84L187.441 117.84L187.441 117.6L187.201 117.6L187.201 117.36L186.961 117.36L186.961 117.12L186.721 117.12L186.721 116.88L186.001 116.88L186.001 116.64L184.801 116.64L184.801 116.88L182.881 116.88L182.881 116.64L182.161 116.64L182.161 116.16L181.921 116.16L181.921 115.92L181.201 115.92L181.201 116.16L180.961 116.16L180.961 115.68L180.241 115.68L180.241 115.44L179.521 115.44L179.521 115.2L179.041 115.2L179.041 115.44L178.801 115.44L178.801 115.2L178.321 115.2L178.321 114.96L177.361 114.96L177.361 114.72L176.161 114.72L176.161 114.48L174.72 114.48L174.72 114.24L173.52 114.24L173.52 114L171.6 114L171.6 113.76L170.64 113.76L170.64 114L170.4 114L170.4 113.76L169.92 113.76L169.92 113.52L169.68 113.52L169.68 113.04L169.44 113.04L169.44 112.8L169.2 112.8L169.2 112.56L168.24 112.56L168.24 111.84L167.76 111.84L167.76 111.6L167.04 111.6L167.04 111.36L163.44 111.36L163.44 111.12L161.76 111.12L161.76 110.88L161.28 110.88L161.28 110.64L160.56 110.64L160.56 110.4L160.08 110.4L160.08 110.16L159.6 110.16L159.6 109.92L159.36 109.92L159.36 109.68L158.88 109.68L158.88 109.44L158.16 109.44L158.16 109.2L157.2 109.2L157.2 108.96L156.24 108.96L156.24 108.72L155.52 108.72L155.52 108.24L155.28 108.24L155.28 108L155.04 108L155.04 107.76L154.8 107.76L154.8 107.28L154.56 107.28L154.56 106.56L154.32 106.56L154.32 102.48L154.56 102.48L154.56 97.44L154.32 97.44L154.32 94.8L154.08 94.8L154.08 93.6L153.84 93.6L153.84 92.64L153.6 92.64L153.6 88.8L153.36 88.8L153.36 88.56L153.6 88.56L153.6 86.88L153.36 86.88L153.36 86.64L153.6 86.64L153.6 85.68L153.36 85.68L153.36 84.96L153.12 84.96L153.12 84.24L152.88 84.24L152.88 84L153.12 84L153.12 82.56L152.88 82.56L152.88 82.32L153.12 82.32L153.12 78.72L152.88 78.72L152.88 74.16L152.64 74.16L152.64 67.92L152.4 67.92L152.4 67.68L152.64 67.68L152.64 64.8L152.88 64.8L152.88 61.2L152.64 61.2L152.64 60.96L152.88 60.96L152.88 55.68L153.12 55.68L153.12 52.8L152.88 52.8L152.88 52.56L153.12 52.56L153.12 50.4L152.88 50.4L152.88 49.44L153.36 49.44L153.36 46.8L153.6 46.8L153.6 44.16L153.84 44.16L153.84 43.2L154.08 43.2L154.08 41.28L154.32 41.28L154.32 35.28L154.56 35.28L154.56 34.56L154.32 34.56L154.32 33.84L154.08 33.84L154.08 33.12L153.84 33.12L153.84 32.16L153.6 32.16L153.6 31.92L153.84 31.92L153.84 30.96L154.08 30.96L154.08 30L154.32 30L154.32 27.12L154.56 27.12L154.56 26.4L154.8 26.4L154.8 24.48L154.56 24.48L154.56 23.04L154.32 23.04L154.32 21.6L154.08 21.6L154.08 20.16L153.84 20.16L153.84 19.92L154.08 19.92L154.08 18.72L154.32 18.72L154.32 17.76L154.56 17.76L154.56 16.56L154.32 16.56L154.32 16.32L154.56 16.32L154.56 15.6L154.8 15.6L154.8 15.36L155.04 15.36L155.04 15.12L155.28 15.12L155.28 14.16L155.04 14.16L155.04 13.92L155.28 13.92L155.28 12.48L155.04 12.48L155.04 8.88L154.56 8.88L154.56 8.16L154.32 8.16L154.32 7.68L154.08 7.68L154.08 6.96L153.84 6.96L153.84 4.8L153.6 4.8L153.6 4.32L153.36 4.32L153.36 4.08L153.12 4.08L153.12 3.84L152.88 3.84L152.88 3.6L152.64 3.6L152.64 3.36L152.4 3.36L152.4 3.12L151.92 3.12L151.92 2.88L151.68 2.88L151.68 2.64L151.44 2.64L151.44 2.4L151.2 2.4L151.2 1.92L150.96 1.92L150.96 1.68L150.72 1.68L150.72 1.44L150.48 1.44L150.48 1.2L150.24 1.2L150.24 0.96L149.76 0.96L149.76 0.72L149.52 0.72L149.52 0.48L149.04 0.48L149.04 0.24L148.56 0.24L148.56 0L147.84 0M59.28 95.04L60.24 95.04L60.24 95.28L61.44 95.28L61.44 95.52L61.92 95.52L61.92 95.76L62.4 95.76L62.4 96L63.12 96L63.12 96.48L63.84 96.48L63.84 96.72L66 96.72L66 96.48L66.24 96.48L66.24 96.72L68.16 96.72L68.16 96.96L69.12 96.96L69.12 97.2L69.84 97.2L69.84 97.44L70.56 97.44L70.56 97.68L71.28 97.68L71.28 97.92L72 97.92L72 98.16L72.72 98.16L72.72 98.4L73.44 98.4L73.44 98.64L73.92 98.64L73.92 98.88L74.16 98.88L74.16 99.12L77.04 99.12L77.04 99.36L77.76 99.36L77.76 99.12L78 99.12L78 99.36L78.48 99.36L78.48 99.6L78.96 99.6L78.96 99.84L79.68 99.84L79.68 100.08L80.4 100.08L80.4 100.32L81.12 100.32L81.12 100.56L82.08 100.56L82.08 100.32L82.32 100.32L82.32 100.56L83.04 100.56L83.04 100.8L83.52 100.8L83.52 101.04L84.96 101.04L84.96 101.28L85.2 101.28L85.2 101.52L85.68 101.52L85.68 101.76L85.92 101.76L85.92 102L86.64 102L86.64 101.76L86.88 101.76L86.88 102L87.12 102L87.12 102.24L87.36 102.24L87.36 102.48L88.32 102.48L88.32 102.24L88.56 102.24L88.56 102.48L89.28 102.48L89.28 102.72L90.24 102.72L90.24 102.48L90.48 102.48L90.48 102.72L91.44 102.72L91.44 102.96L91.92 102.96L91.92 103.2L92.16 103.2L92.16 103.44L92.88 103.44L92.88 103.68L93.6 103.68L93.6 103.92L94.32 103.92L94.32 104.16L95.28 104.16L95.28 104.4L95.76 104.4L95.76 104.64L96.24 104.64L96.24 104.88L96.48 104.88L96.48 105.12L96.96 105.12L96.96 105.36L97.2 105.36L97.2 105.6L98.64 105.6L98.64 105.84L99.84 105.84L99.84 106.08L100.56 106.08L100.56 106.32L101.04 106.32L101.04 106.56L101.52 106.56L101.52 106.8L102.72 106.8L102.72 107.04L104.4 107.04L104.4 107.28L105.6 107.28L105.6 107.52L106.08 107.52L106.08 107.76L106.56 107.76L106.56 108L107.04 108L107.04 108.24L110.4 108.24L110.4 108.48L111.84 108.48L111.84 108.72L112.8 108.72L112.8 108.96L113.52 108.96L113.52 109.2L114.24 109.2L114.24 109.44L114.96 109.44L114.96 109.68L115.92 109.68L115.92 109.92L117.12 109.92L117.12 110.16L118.56 110.16L118.56 110.4L119.52 110.4L119.52 110.64L120.48 110.64L120.48 110.88L121.68 110.88L121.68 111.12L122.88 111.12L122.88 111.36L124.08 111.36L124.08 111.6L125.28 111.6L125.28 111.84L126.72 111.84L126.72 112.08L127.68 112.08L127.68 112.32L128.64 112.32L128.64 112.56L129.36 112.56L129.36 112.8L130.32 112.8L130.32 113.04L131.28 113.04L131.28 113.28L132.72 113.28L132.72 113.04L133.92 113.04L133.92 112.8L134.16 112.8L134.16 113.04L135.12 113.04L135.12 113.28L136.8 113.28L136.8 113.52L137.52 113.52L137.52 113.76L138.24 113.76L138.24 114L138.96 114L138.96 114.24L139.68 114.24L139.68 114.48L140.16 114.48L140.16 114.72L140.64 114.72L140.64 114.96L141.84 114.96L141.84 115.2L143.52 115.2L143.52 115.44L145.2 115.44L145.2 115.68L146.16 115.68L146.16 115.92L146.88 115.92L146.88 116.4L147.6 116.4L147.6 116.64L149.04 116.64L149.04 116.88L150.24 116.88L150.24 117.12L151.2 117.12L151.2 117.36L151.92 117.36L151.92 117.6L153.6 117.6L153.6 117.36L153.84 117.36L153.84 117.6L154.56 117.6L154.56 117.84L155.04 117.84L155.04 118.08L156.96 118.08L156.96 118.32L157.68 118.32L157.68 118.56L158.64 118.56L158.64 118.8L159.6 118.8L159.6 119.04L160.08 119.04L160.08 119.28L160.8 119.28L160.8 119.52L161.28 119.52L161.28 119.76L162 119.76L162 120.24L162.24 120.24L162.24 120.48L162.72 120.48L162.72 120.72L163.2 120.72L163.2 120.96L163.68 120.96L163.68 121.2L165.12 121.2L165.12 120.96L165.36 120.96L165.36 121.2L167.76 121.2L167.76 121.44L168.48 121.44L168.48 121.68L168.96 121.68L168.96 121.92L169.44 121.92L169.44 122.16L169.92 122.16L169.92 122.4L171.36 122.4L171.36 122.64L172.08 122.64L172.08 122.88L172.8 122.88L172.8 123.12L173.28 123.12L173.28 123.36L174 123.36L174 123.6L175.44 123.6L175.44 123.84L177.841 123.84L177.841 124.32L178.081 124.32L178.081 124.56L178.561 124.56L178.561 124.8L180.001 124.8L180.001 125.04L182.161 125.04L182.161 125.28L184.081 125.28L184.081 125.52L185.521 125.52L185.521 125.76L186.961 125.76L186.961 126L187.681 126L187.681 126.24L188.161 126.24L188.161 126.48L188.641 126.48L188.641 126.72L189.361 126.72L189.361 126.96L190.321 126.96L190.321 127.44L192.241 127.44L192.241 127.92L192.961 127.92L192.961 128.16L193.921 128.16L193.921 128.4L194.401 128.4L194.401 128.64L194.881 128.64L194.881 128.88L196.321 128.88L196.321 129.12L196.801 129.12L196.801 129.36L197.521 129.36L197.521 129.84L198.481 129.84L198.481 130.08L199.921 130.08L199.921 130.32L200.641 130.32L200.641 130.56L201.361 130.56L201.361 130.8L202.081 130.8L202.081 131.04L203.041 131.04L203.041 131.28L204.001 131.28L204.001 131.52L204.721 131.52L204.721 131.76L204.961 131.76L204.961 132L206.881 132L206.881 132.24L207.841 132.24L207.841 132.48L208.561 132.48L208.561 132.72L209.521 132.72L209.521 132.96L210.001 132.96L210.001 133.2L210.721 133.2L210.721 133.44L211.201 133.44L211.201 133.68L211.441 133.68L211.441 133.92L211.681 133.92L211.681 134.16L212.161 134.16L212.161 134.4L213.121 134.4L213.121 134.64L213.601 134.64L213.601 134.88L214.081 134.88L214.081 135.12L214.801 135.12L214.801 135.36L215.281 135.36L215.281 135.6L215.761 135.6L215.761 135.84L216.241 135.84L216.241 136.08L216.961 136.08L216.961 136.32L217.681 136.32L217.681 136.56L218.161 136.56L218.161 136.8L218.881 136.8L218.881 137.04L219.841 137.04L219.841 137.28L221.041 137.28L221.041 137.52L222.001 137.52L222.001 137.76L222.721 137.76L222.721 138L223.441 138L223.441 138.24L224.161 138.24L224.161 138.48L224.641 138.48L224.641 138.72L225.361 138.72L225.361 138.96L225.841 138.96L225.841 139.2L226.561 139.2L226.561 139.44L227.281 139.44L227.281 139.68L228.241 139.68L228.241 139.92L228.961 139.92L228.961 140.16L229.921 140.16L229.921 140.4L231.841 140.4L231.841 140.64L233.281 140.64L233.281 140.88L233.761 140.88L233.761 141.12L234.241 141.12L234.241 141.36L234.961 141.36L234.961 141.6L235.921 141.6L235.921 141.84L236.881 141.84L236.881 142.08L237.601 142.08L237.601 142.32L238.081 142.32L238.081 142.56L238.561 142.56L238.561 142.8L239.041 142.8L239.041 143.04L239.761 143.04L239.761 143.28L240.721 143.28L240.721 143.52L241.681 143.52L241.681 143.76L242.161 143.76L242.161 144L242.641 144L242.641 144.24L242.881 144.24L242.881 144.48L243.601 144.48L243.601 144.72L244.321 144.72L244.321 144.96L245.041 144.96L245.041 145.2L245.281 145.2L245.281 145.44L245.761 145.44L245.761 145.68L246.481 145.68L246.481 145.92L247.201 145.92L247.201 146.64L247.441 146.64L247.441 146.88L247.921 146.88L247.921 147.12L248.161 147.12L248.161 147.36L248.401 147.36L248.401 147.84L248.641 147.84L248.641 148.08L249.361 148.08L249.361 148.32L248.881 148.32L248.881 148.56L248.161 148.56L248.161 148.8L247.201 148.8L247.201 149.04L246.721 149.04L246.721 149.28L245.761 149.28L245.761 149.52L244.561 149.52L244.561 149.76L243.841 149.76L243.841 150L243.361 150L243.361 150.24L242.641 150.24L242.641 150.48L241.921 150.48L241.921 150.72L241.441 150.72L241.441 150.96L240.961 150.96L240.961 151.2L240.241 151.2L240.241 151.44L239.761 151.44L239.761 151.68L238.561 151.68L238.561 151.92L237.361 151.92L237.361 152.16L237.121 152.16L237.121 152.4L236.881 152.4L236.881 152.88L236.641 152.88L236.641 153.12L236.161 153.12L236.161 153.36L235.441 153.36L235.441 153.84L235.201 153.84L235.201 153.6L234.961 153.6L234.961 153.84L234.721 153.84L234.721 154.56L234.001 154.56L234.001 154.8L233.521 154.8L233.521 155.04L232.561 155.04L232.561 155.28L231.601 155.28L231.601 155.52L231.121 155.52L231.121 155.76L230.881 155.76L230.881 156L230.641 156L230.641 156.24L230.401 156.24L230.401 156.72L230.161 156.72L230.161 156.48L229.201 156.48L229.201 156.72L227.281 156.72L227.281 156.96L226.801 156.96L226.801 157.2L226.321 157.2L226.321 157.44L224.881 157.44L224.881 157.68L223.441 157.68L223.441 157.92L223.201 157.92L223.201 158.16L222.961 158.16L222.961 158.4L222.001 158.4L222.001 159.12L221.281 159.12L221.281 158.64L219.361 158.64L219.361 158.88L219.121 158.88L219.121 159.6L218.641 159.6L218.641 159.84L218.401 159.84L218.401 160.08L217.921 160.08L217.921 160.32L217.441 160.32L217.441 161.04L216.961 161.04L216.961 161.28L216.001 161.28L216.001 161.52L213.121 161.52L213.121 161.76L212.161 161.76L212.161 162L211.681 162L211.681 162.24L211.441 162.24L211.441 162.48L210.241 162.48L210.241 162.72L208.801 162.72L208.801 162.96L208.081 162.96L208.081 163.2L207.121 163.2L207.121 163.44L206.881 163.44L206.881 163.92L206.401 163.92L206.401 164.16L206.161 164.16L206.161 164.4L205.921 164.4L205.921 164.64L205.441 164.64L205.441 164.88L205.201 164.88L205.201 165.36L204.481 165.36L204.481 165.6L204.241 165.6L204.241 165.84L203.281 165.84L203.281 166.08L202.561 166.08L202.561 166.56L202.321 166.56L202.321 167.28L201.841 167.28L201.841 167.52L201.601 167.52L201.601 167.28L201.361 167.28L201.361 167.04L200.641 167.04L200.641 166.8L201.121 166.8L201.121 166.56L200.641 166.56L200.641 166.8L199.681 166.8L199.681 167.04L198.241 167.04L198.241 167.28L198.001 167.28L198.001 168L197.761 168L197.761 167.76L197.041 167.76L197.041 168L196.801 168L196.801 168.48L196.081 168.48L196.081 168.72L195.361 168.72L195.361 168.96L194.641 168.96L194.641 169.2L194.161 169.2L194.161 169.44L193.681 169.44L193.681 169.68L193.441 169.68L193.441 169.92L192.961 169.92L192.961 170.16L192.481 170.16L192.481 170.4L192.241 170.4L192.241 170.64L191.761 170.64L191.761 170.88L191.521 170.88L191.521 171.12L191.281 171.12L191.281 171.36L191.041 171.36L191.041 171.6L190.801 171.6L190.801 171.84L190.561 171.84L190.561 172.08L190.081 172.08L190.081 172.32L189.121 172.32L189.121 172.56L188.401 172.56L188.401 172.8L187.441 172.8L187.441 173.04L186.721 173.04L186.721 173.28L186.241 173.28L186.241 173.52L186.001 173.52L186.001 174L185.761 174L185.761 173.76L183.601 173.76L183.601 174L182.161 174L182.161 174.24L181.681 174.24L181.681 174.48L181.441 174.48L181.441 175.2L180.721 175.2L180.721 175.44L180.241 175.44L180.241 175.68L179.761 175.68L179.761 175.92L179.521 175.92L179.521 176.16L179.281 176.16L179.281 175.92L178.801 175.92L178.801 176.4L178.321 176.4L178.321 176.64L178.081 176.64L178.081 176.88L177.841 176.88L177.841 177.12L177.361 177.12L177.361 177.36L177.121 177.36L177.121 177.6L176.881 177.6L176.881 178.08L176.641 178.08L176.641 178.32L174.96 178.32L174.96 178.56L174.24 178.56L174.24 178.8L173.52 178.8L173.52 179.04L172.8 179.04L172.8 179.28L172.32 179.28L172.32 179.52L171.84 179.52L171.84 179.76L171.6 179.76L171.6 180L171.36 180L171.36 180.24L171.12 180.24L171.12 180.48L170.64 180.48L170.64 180.72L170.4 180.72L170.4 180.96L170.16 180.96L170.16 181.2L169.92 181.2L169.92 181.44L169.68 181.44L169.68 181.68L169.44 181.68L169.44 181.92L168.96 181.92L168.96 182.641L168.24 182.641L168.24 182.881L167.76 182.881L167.76 183.121L166.32 183.121L166.32 183.361L165.84 183.361L165.84 183.601L165.12 183.601L165.12 183.841L163.68 183.841L163.68 184.081L163.44 184.081L163.44 183.841L162.24 183.841L162.24 184.081L161.76 184.081L161.76 184.321L161.28 184.321L161.28 184.561L161.04 184.561L161.04 185.041L160.8 185.041L160.8 185.281L160.32 185.281L160.32 185.521L159.6 185.521L159.6 185.761L159.12 185.761L159.12 186.001L158.16 186.001L158.16 185.761L157.92 185.761L157.92 186.001L157.68 186.001L157.68 186.241L157.44 186.241L157.44 186.001L157.2 186.001L157.2 186.241L156.96 186.241L156.96 186.721L156.48 186.721L156.48 186.961L155.76 186.961L155.76 186.721L155.04 186.721L155.04 186.961L155.76 186.961L155.76 187.201L155.04 187.201L155.04 187.441L154.8 187.441L154.8 187.201L153.84 187.201L153.84 187.441L153.12 187.441L153.12 187.681L152.4 187.681L152.4 187.921L151.92 187.921L151.92 188.161L150.96 188.161L150.96 188.401L150.72 188.401L150.72 188.161L148.8 188.161L148.8 188.401L147.12 188.401L147.12 188.641L146.4 188.641L146.4 188.881L145.44 188.881L145.44 189.121L144.24 189.121L144.24 189.361L143.28 189.361L143.28 189.601L143.04 189.601L143.04 189.841L142.8 189.841L142.8 190.081L142.56 190.081L142.56 190.321L142.08 190.321L142.08 190.561L141.36 190.561L141.36 190.801L140.64 190.801L140.64 191.041L138.96 191.041L138.96 191.281L137.76 191.281L137.76 191.761L137.04 191.761L137.04 192.001L136.32 192.001L136.32 192.241L135.6 192.241L135.6 192.481L135.36 192.481L135.36 192.721L135.12 192.721L135.12 192.961L134.88 192.961L134.88 193.201L134.4 193.201L134.4 193.441L133.92 193.441L133.92 193.681L133.2 193.681L133.2 193.921L132.72 193.921L132.72 194.161L132 194.161L132 194.401L131.28 194.401L131.28 194.641L131.04 194.641L131.04 194.881L130.32 194.881L130.32 195.121L129.12 195.121L129.12 195.361L128.64 195.361L128.64 195.601L128.4 195.601L128.4 195.841L127.92 195.841L127.92 196.081L127.44 196.081L127.44 196.321L127.2 196.321L127.2 196.561L126.96 196.561L126.96 196.801L126.48 196.801L126.48 197.041L126 197.041L126 197.281L125.52 197.281L125.52 197.521L125.04 197.521L125.04 197.761L124.56 197.761L124.56 198.001L122.88 198.001L122.88 198.481L122.16 198.481L122.16 198.721L121.44 198.721L121.44 198.961L120.72 198.961L120.72 199.201L120 199.201L120 199.441L119.76 199.441L119.76 199.921L119.28 199.921L119.28 200.161L118.8 200.161L118.8 200.401L118.32 200.401L118.32 200.641L118.08 200.641L118.08 200.881L117.84 200.881L117.84 201.121L117.6 201.121L117.6 201.361L117.12 201.361L117.12 201.601L116.88 201.601L116.88 202.081L116.4 202.081L116.4 202.321L116.16 202.321L116.16 202.561L115.92 202.561L115.92 202.801L115.44 202.801L115.44 203.041L115.2 203.041L115.2 202.801L114.72 202.801L114.72 202.561L111.6 202.561L111.6 202.801L110.64 202.801L110.64 203.041L109.92 203.041L109.92 203.281L109.68 203.281L109.68 203.521L109.44 203.521L109.44 203.761L109.2 203.761L109.2 204.001L108.96 204.001L108.96 204.241L108.72 204.241L108.72 204.481L108.24 204.481L108.24 204.721L108 204.721L108 204.961L107.04 204.961L107.04 205.201L103.92 205.201L103.92 205.441L103.2 205.441L103.2 205.681L102.48 205.681L102.48 205.921L102.24 205.921L102.24 206.161L101.76 206.161L101.76 206.401L101.04 206.401L101.04 206.641L100.32 206.641L100.32 206.881L100.08 206.881L100.08 207.121L99.6 207.121L99.6 207.361L99.36 207.361L99.36 207.841L98.4 207.841L98.4 208.081L98.16 208.081L98.16 207.841L97.44 207.841L97.44 208.081L97.2 208.081L97.2 207.841L90.72 207.841L90.72 208.081L89.52 208.081L89.52 208.321L89.28 208.321L89.28 208.561L88.56 208.561L88.56 208.801L87.6 208.801L87.6 209.041L87.12 209.041L87.12 209.521L86.4 209.521L86.4 209.761L85.92 209.761L85.92 210.241L85.68 210.241L85.68 210.001L85.44 210.001L85.44 210.241L85.2 210.241L85.2 210.481L84.96 210.481L84.96 210.721L84.24 210.721L84.24 210.961L83.28 210.961L83.28 211.201L82.08 211.201L82.08 211.681L81.36 211.681L81.36 211.921L80.88 211.921L80.88 212.161L79.92 212.161L79.92 212.401L79.2 212.401L79.2 212.641L78.24 212.641L78.24 212.881L77.04 212.881L77.04 213.121L76.56 213.121L76.56 213.601L76.08 213.601L76.08 213.361L75.6 213.361L75.6 213.601L75.36 213.601L75.36 213.841L75.12 213.841L75.12 214.081L74.4 214.081L74.4 214.321L74.16 214.321L74.16 214.081L71.28 214.081L71.28 214.321L71.04 214.321L71.04 214.561L70.56 214.561L70.56 214.801L70.32 214.801L70.32 215.281L70.08 215.281L70.08 215.041L69.6 215.041L69.6 214.801L69.36 214.801L69.36 215.281L68.88 215.281L68.88 215.041L68.16 215.041L68.16 214.801L67.2 214.801L67.2 215.041L66.96 215.041L66.96 215.281L66.72 215.281L66.72 215.521L66.48 215.521L66.48 215.761L66.24 215.761L66.24 216.001L66 216.001L66 216.241L65.52 216.241L65.52 216.481L64.08 216.481L64.08 216.721L62.16 216.721L62.16 216.961L60.72 216.961L60.72 217.201L59.28 217.201L59.28 217.441L58.32 217.441L58.32 217.681L58.08 217.681L58.08 217.201L58.32 217.201L58.32 216.481L58.56 216.481L58.56 212.881L58.32 212.881L58.32 206.401L58.08 206.401L58.08 206.161L58.32 206.161L58.32 203.761L58.56 203.761L58.56 198.721L58.32 198.721L58.32 198.241L58.08 198.241L58.08 198.001L58.32 198.001L58.32 196.081L58.56 196.081L58.56 192.241L58.32 192.241L58.32 192.001L58.56 192.001L58.56 188.641L58.32 188.641L58.32 187.441L58.08 187.441L58.08 186.721L57.84 186.721L57.84 186.481L58.08 186.481L58.08 186.241L57.84 186.241L57.84 182.881L58.08 182.881L58.08 182.16L58.32 182.16L58.32 178.8L58.56 178.8L58.56 175.2L58.8 175.2L58.8 173.04L59.04 173.04L59.04 170.64L59.28 170.64L59.28 168.96L59.52 168.96L59.52 167.76L59.28 167.76L59.28 167.52L59.52 167.52L59.52 165.6L59.76 165.6L59.76 162.48L59.52 162.48L59.52 162.24L59.76 162.24L59.76 160.08L60 160.08L60 158.4L60.24 158.4L60.24 155.52L60.48 155.52L60.48 154.32L60.24 154.32L60.24 154.08L60.48 154.08L60.48 150.96L60.24 150.96L60.24 150.72L60.48 150.72L60.48 148.8L60.24 148.8L60.24 147.36L60 147.36L60 144.72L59.76 144.72L59.76 144.48L60 144.48L60 139.44L59.76 139.44L59.76 134.64L60 134.64L60 132L60.24 132L60.24 129.84L60 129.84L60 128.64L59.76 128.64L59.76 128.4L60 128.4L60 123.6L59.76 123.6L59.76 114L59.52 114L59.52 112.8L59.28 112.8L59.28 112.56L59.52 112.56L59.52 111.6L59.28 111.6L59.28 111.36L59.52 111.36L59.52 110.4L59.28 110.4L59.28 110.16L59.52 110.16L59.52 109.2L59.76 109.2L59.76 107.76L60 107.76L60 104.4L59.76 104.4L59.76 102.72L59.52 102.72L59.52 102L59.28 102L59.28 101.76L59.52 101.76L59.52 100.8L59.28 100.8L59.28 100.32L59.04 100.32L59.04 99.36L58.8 99.36L58.8 97.68L59.04 97.68L59.04 97.2L59.28 97.2L59.28 96.72L59.52 96.72L59.52 95.76L59.28 95.76L59.28 95.04M86.16 126.48L86.16 126.72L85.44 126.72L85.44 126.96L84.96 126.96L84.96 127.2L84.24 127.2L84.24 127.44L83.52 127.44L83.52 127.68L83.28 127.68L83.28 127.92L83.04 127.92L83.04 128.88L81.84 128.88L81.84 129.12L81.6 129.12L81.6 129.36L81.36 129.36L81.36 130.08L81.12 130.08L81.12 130.32L80.88 130.32L80.88 130.56L80.64 130.56L80.64 131.52L80.4 131.52L80.4 132.72L80.64 132.72L80.64 132.96L80.4 132.96L80.4 134.4L80.64 134.4L80.64 135.36L80.88 135.36L80.88 135.6L81.12 135.6L81.12 135.84L81.36 135.84L81.36 136.08L81.6 136.08L81.6 136.32L82.08 136.32L82.08 136.56L82.32 136.56L82.32 137.04L82.56 137.04L82.56 137.28L82.8 137.28L82.8 137.52L83.28 137.52L83.28 137.76L84 137.76L84 138L84.48 138L84.48 138.24L85.44 138.24L85.44 138L85.92 138L85.92 137.76L86.4 137.76L86.4 138.24L86.64 138.24L86.64 138.48L86.88 138.48L86.88 139.44L87.12 139.44L87.12 139.92L87.6 139.92L87.6 140.88L87.84 140.88L87.84 145.68L87.6 145.68L87.6 147.12L87.36 147.12L87.36 148.56L87.12 148.56L87.12 150L86.88 150L86.88 151.44L87.12 151.44L87.12 158.64L86.88 158.64L86.88 159.36L86.64 159.36L86.64 160.32L86.88 160.32L86.88 160.56L86.64 160.56L86.64 161.52L86.88 161.52L86.88 162.24L87.12 162.24L87.12 162.48L86.88 162.48L86.88 164.88L86.64 164.88L86.64 165.12L86.16 165.12L86.16 165.36L85.68 165.36L85.68 165.6L84.96 165.6L84.96 165.84L84.72 165.84L84.72 166.08L84.48 166.08L84.48 166.32L84.24 166.32L84.24 166.56L84 166.56L84 167.04L83.52 167.04L83.52 167.28L83.04 167.28L83.04 167.52L82.8 167.52L82.8 167.76L82.56 167.76L82.56 168L82.32 168L82.32 169.2L82.56 169.2L82.56 169.92L82.8 169.92L82.8 170.16L83.04 170.16L83.04 170.4L83.28 170.4L83.28 170.64L83.52 170.64L83.52 170.88L83.76 170.88L83.76 171.12L84 171.12L84 171.36L84.24 171.36L84.24 171.6L84.48 171.6L84.48 172.08L84.72 172.08L84.72 172.32L84.96 172.32L84.96 172.56L86.16 172.56L86.16 173.04L86.4 173.04L86.4 173.28L86.64 173.28L86.64 173.52L86.88 173.52L86.88 173.76L87.12 173.76L87.12 174L87.6 174L87.6 174.24L88.08 174.24L88.08 174.48L88.56 174.48L88.56 174.72L89.04 174.72L89.04 174.96L89.28 174.96L89.28 175.2L89.76 175.2L89.76 175.68L90 175.68L90 175.92L90.72 175.92L90.72 176.4L90.96 176.4L90.96 176.64L91.92 176.64L91.92 176.88L93.36 176.88L93.36 176.4L94.08 176.4L94.08 176.16L94.56 176.16L94.56 175.92L95.04 175.92L95.04 175.68L95.28 175.68L95.28 175.44L95.52 175.44L95.52 174.96L95.76 174.96L95.76 174.72L96.48 174.72L96.48 174.48L96.96 174.48L96.96 174.24L97.2 174.24L97.2 173.76L98.88 173.76L98.88 173.52L99.12 173.52L99.12 173.76L100.08 173.76L100.08 173.52L100.56 173.52L100.56 173.28L101.04 173.28L101.04 173.04L101.76 173.04L101.76 172.8L102.72 172.8L102.72 172.56L103.92 172.56L103.92 172.32L104.64 172.32L104.64 172.08L105.36 172.08L105.36 171.84L105.6 171.84L105.6 171.6L106.08 171.6L106.08 171.36L106.32 171.36L106.32 171.12L106.8 171.12L106.8 170.88L107.28 170.88L107.28 170.64L107.76 170.64L107.76 170.4L108 170.4L108 170.16L108.24 170.16L108.24 169.44L109.2 169.44L109.2 169.2L109.68 169.2L109.68 168.96L110.16 168.96L110.16 168.72L110.88 168.72L110.88 168.48L111.36 168.48L111.36 168L111.12 168L111.12 167.76L111.84 167.76L111.84 167.52L112.32 167.52L112.32 167.28L112.8 167.28L112.8 167.04L113.52 167.04L113.52 166.8L113.76 166.8L113.76 166.56L114.24 166.56L114.24 166.32L114.48 166.32L114.48 166.08L114.72 166.08L114.72 165.84L115.2 165.84L115.2 165.6L115.44 165.6L115.44 165.36L115.92 165.36L115.92 165.12L116.16 165.12L116.16 164.88L116.4 164.88L116.4 164.64L116.64 164.64L116.64 164.4L116.88 164.4L116.88 164.16L117.12 164.16L117.12 163.92L117.6 163.92L117.6 163.68L117.84 163.68L117.84 163.44L118.08 163.44L118.08 162.96L118.8 162.96L118.8 162.72L119.28 162.72L119.28 162.48L119.52 162.48L119.52 162.24L119.76 162.24L119.76 162L120 162L120 161.76L120.24 161.76L120.24 161.52L120.72 161.52L120.72 161.28L121.2 161.28L121.2 161.04L121.44 161.04L121.44 160.8L121.92 160.8L121.92 160.56L122.16 160.56L122.16 159.84L122.88 159.84L122.88 159.6L123.12 159.6L123.12 159.36L123.6 159.36L123.6 159.12L123.84 159.12L123.84 158.64L124.08 158.64L124.08 158.16L124.32 158.16L124.32 157.92L124.56 157.92L124.56 157.44L124.8 157.44L124.8 156.96L125.04 156.96L125.04 156.72L125.28 156.72L125.28 155.76L125.52 155.76L125.52 154.8L125.76 154.8L125.76 154.32L126 154.32L126 153.84L126.24 153.84L126.24 153.36L126.48 153.36L126.48 152.88L126.72 152.88L126.72 152.64L126.96 152.64L126.96 151.92L127.2 151.92L127.2 150.96L127.44 150.96L127.44 149.52L127.68 149.52L127.68 145.92L127.44 145.92L127.44 144.24L127.2 144.24L127.2 143.04L126.96 143.04L126.96 141.84L126.72 141.84L126.72 141.12L126.48 141.12L126.48 140.88L126.24 140.88L126.24 140.64L125.76 140.64L125.76 140.16L125.52 140.16L125.52 139.92L125.28 139.92L125.28 139.68L125.04 139.68L125.04 139.44L124.8 139.44L124.8 139.2L124.32 139.2L124.32 138.96L124.08 138.96L124.08 138.72L123.84 138.72L123.84 138.48L123.6 138.48L123.6 138.24L123.36 138.24L123.36 138L123.12 138L123.12 137.76L122.88 137.76L122.88 137.52L122.64 137.52L122.64 137.28L122.4 137.28L122.4 136.8L122.16 136.8L122.16 136.56L121.92 136.56L121.92 136.32L121.68 136.32L121.68 136.08L121.44 136.08L121.44 135.84L121.2 135.84L121.2 135.36L120.96 135.36L120.96 135.12L120.72 135.12L120.72 134.88L120.24 134.88L120.24 134.64L120 134.64L120 134.16L119.76 134.16L119.76 133.92L119.52 133.92L119.52 133.68L119.04 133.68L119.04 133.44L118.56 133.44L118.56 133.2L118.32 133.2L118.32 132.96L117.6 132.96L117.6 132.72L116.88 132.72L116.88 132.48L116.4 132.48L116.4 132.24L115.92 132.24L115.92 132L115.44 132L115.44 131.76L114.48 131.76L114.48 131.52L113.76 131.52L113.76 131.28L113.52 131.28L113.52 131.04L112.8 131.04L112.8 130.8L112.08 130.8L112.08 130.56L111.36 130.56L111.36 130.32L109.68 130.32L109.68 130.08L108.24 130.08L108.24 129.84L107.04 129.84L107.04 129.6L106.08 129.6L106.08 129.36L105.36 129.36L105.36 129.12L104.88 129.12L104.88 128.88L104.4 128.88L104.4 128.64L103.68 128.64L103.68 128.4L102.96 128.4L102.96 128.16L102 128.16L102 127.92L100.08 127.92L100.08 128.16L99.84 128.16L99.84 127.92L98.16 127.92L98.16 127.68L96.48 127.68L96.48 127.44L94.56 127.44L94.56 127.2L92.88 127.2L92.88 126.96L90 126.96L90 126.72L87.36 126.72L87.36 126.48L86.16 126.48M96.72 137.28L98.4 137.28L98.4 137.52L100.32 137.52L100.32 137.76L101.28 137.76L101.28 138L102.24 138L102.24 137.76L102.48 137.76L102.48 138L103.2 138L103.2 138.24L103.92 138.24L103.92 138.48L104.4 138.48L104.4 138.72L104.88 138.72L104.88 138.96L105.6 138.96L105.6 139.2L106.56 139.2L106.56 139.44L107.52 139.44L107.52 139.68L108.24 139.68L108.24 139.92L108.96 139.92L108.96 140.16L109.68 140.16L109.68 140.4L110.64 140.4L110.64 140.64L111.36 140.64L111.36 140.88L112.32 140.88L112.32 141.12L113.52 141.12L113.52 141.36L114.48 141.36L114.48 141.6L114.96 141.6L114.96 141.84L115.2 141.84L115.2 142.08L115.44 142.08L115.44 142.32L115.92 142.32L115.92 142.56L116.64 142.56L116.64 142.8L116.88 142.8L116.88 143.04L117.12 143.04L117.12 143.28L117.36 143.28L117.36 143.52L117.6 143.52L117.6 143.76L117.84 143.76L117.84 144.24L118.08 144.24L118.08 144.72L118.32 144.72L118.32 148.32L118.08 148.32L118.08 149.04L117.84 149.04L117.84 149.76L117.6 149.76L117.6 150.48L117.36 150.48L117.36 150.96L117.12 150.96L117.12 151.2L116.88 151.2L116.88 151.68L116.64 151.68L116.64 151.92L116.4 151.92L116.4 152.16L116.16 152.16L116.16 152.4L115.92 152.4L115.92 152.88L115.68 152.88L115.68 153.12L115.44 153.12L115.44 153.36L115.2 153.36L115.2 153.6L114.96 153.6L114.96 153.84L114.72 153.84L114.72 154.08L114.48 154.08L114.48 154.56L114.24 154.56L114.24 154.8L113.76 154.8L113.76 155.04L113.28 155.04L113.28 155.28L113.04 155.28L113.04 155.52L113.28 155.52L113.28 155.76L112.8 155.76L112.8 156L112.56 156L112.56 156.24L112.08 156.24L112.08 156.48L111.84 156.48L111.84 156.96L111.36 156.96L111.36 157.2L111.12 157.2L111.12 157.44L110.64 157.44L110.64 157.68L110.4 157.68L110.4 157.92L110.16 157.92L110.16 158.16L109.92 158.16L109.92 158.4L109.44 158.4L109.44 158.64L109.2 158.64L109.2 158.88L108.96 158.88L108.96 159.12L108.48 159.12L108.48 159.36L108 159.36L108 159.6L107.28 159.6L107.28 159.84L106.56 159.84L106.56 160.08L105.6 160.08L105.6 160.32L105.12 160.32L105.12 160.8L104.4 160.8L104.4 161.04L103.92 161.04L103.92 161.28L103.68 161.28L103.68 161.04L102.96 161.04L102.96 161.28L102.72 161.28L102.72 161.52L102.48 161.52L102.48 161.76L102.24 161.76L102.24 162L101.76 162L101.76 162.24L101.52 162.24L101.52 162.48L101.28 162.48L101.28 162.72L101.04 162.72L101.04 162.96L100.56 162.96L100.56 163.2L97.44 163.2L97.44 162.48L97.2 162.48L97.2 160.56L96.96 160.56L96.96 160.32L97.2 160.32L97.2 157.44L97.44 157.44L97.44 155.76L97.68 155.76L97.68 154.8L97.92 154.8L97.92 152.16L97.68 152.16L97.68 151.44L97.44 151.44L97.44 150.72L97.2 150.72L97.2 149.76L96.96 149.76L96.96 149.52L97.2 149.52L97.2 143.52L96.96 143.52L96.96 139.2L96.72 139.2L96.72 137.28M86.88 138.24L87.12 138.24L87.12 138.48L86.88 138.48L86.88 138.24M1.68 148.56L1.92 148.56L1.92 148.8L1.68 148.8L1.68 148.56M180.001 174.96L180.001 175.2L180.241 175.2L180.241 174.96L180.001 174.96M57.6 182.401L57.84 182.401L57.84 182.641L57.6 182.641L57.6 182.401M70.32 215.281L70.56 215.281L70.56 215.521L70.32 215.521L70.32 215.281"/>
</svg>
