<svg xmlns="http://www.w3.org/2000/svg"
    viewBox="0 0 57.6 57.6">
<defs/>
<rect id="shape0" transform="translate(16.272, 14.112)" fill="#fbfbfb" fill-rule="evenodd" stroke="#fbfbfb" stroke-width="2.88" stroke-linecap="square" stroke-linejoin="bevel" width="28.296" height="28.656" rx="1.368" ry="1.368"/><g id="Icons" transform="matrix(1.2 0 0 1.2 0 8.4)" fill="none">
  <g id="Color-" transform="translate(-200, -368)" fill="none">
   <path id="Youtube" transform="translate(200, 368)" fill="#ce1312" fill-rule="evenodd" stroke-opacity="0" stroke="#000000" stroke-width="0" stroke-linecap="square" stroke-linejoin="bevel" d="M19.044 23.2699L19.0425 9.68774L32.0115 16.5022ZM47.52 7.33416C47.52 7.33416 47.0505 4.0032 45.612 2.53637C43.7865 0.610299 41.7405 0.601235 40.803 0.489448C34.086 0 24.0105 0 24.0105 0L23.9895 0C23.9895 0 13.914 0 7.197 0.489448C6.258 0.601235 4.2135 0.610299 2.3865 2.53637C0.948 4.0032 0.48 7.33416 0.48 7.33416C0.48 7.33416 0 11.2467 0 15.1578L0 18.8256C0 22.7382 0.48 26.6492 0.48 26.6492C0.48 26.6492 0.948 29.9802 2.3865 31.447C4.2135 33.3731 6.612 33.3127 7.68 33.5136C11.52 33.8852 24 34 24 34C24 34 34.086 33.9849 40.803 33.4954C41.7405 33.3821 43.7865 33.3731 45.612 31.447C47.0505 29.9802 47.52 26.6492 47.52 26.6492C47.52 26.6492 48 22.7382 48 18.8256L48 15.1578C48 11.2467 47.52 7.33416 47.52 7.33416Z"/>
  </g>
 </g>
</svg>
